<?xml version="1.0" encoding="UTF-8"?>
<svg width="144px" height="48px" viewBox="0 0 144 48" version="1.1" xmlns="http://www.w3.org/2000/svg" xmlns:xlink="http://www.w3.org/1999/xlink">
    <!-- Generator: Sketch 52.4 (67378) - http://www.bohemiancoding.com/sketch -->
    <title>app-store-button</title>
    <desc>Created with Sketch.</desc>
    <g id="Page-1" stroke="none" stroke-width="1" fill="none" fill-rule="evenodd">
        <g id="app-store-button">
            <g id="Group">
                <g id="Path">
                    <path d="M132.161724,3.25260652e-19 L11.441616,3.25260652e-19 C11.001576,3.25260652e-19 10.566816,3.25260652e-19 10.12794,0.0024 C9.76056,0.0048 9.396108,0.011772 9.0252,0.01764 C8.21941642,0.0271221643 7.41552776,0.0980115119 6.62052,0.229692 C5.8266289,0.364239153 5.05760702,0.617898888 4.339464,0.982092 C3.62219929,1.34936605 2.96681402,1.82660104 2.397084,2.396484 C1.824363,2.96476439 1.34695582,3.62161965 0.98322,4.341792 C0.61848029,5.06053094 0.365568598,5.83072595 0.23322,6.625776 C0.0996131294,7.41982189 0.0277180568,8.22302465 0.01818,9.028176 C0.007044,9.396096 0.005868,9.76524 0,10.133208 L0,37.87032 C0.005868,38.24292 0.007044,38.60388 0.01818,38.9766 C0.0277209816,39.7817114 0.0996160555,40.5848741 0.23322,41.37888 C0.365203144,42.1743948 0.61812979,42.945032 0.98322,43.66404 C1.34679066,44.3818835 1.82426498,45.0360794 2.397084,45.6012 C2.96465379,46.1736169 3.62046268,46.6511765 4.339464,47.01564 C5.05760157,47.3808079 5.82654053,47.6359774 6.62052,47.7726 C7.41566291,47.9032257 8.21946889,47.9741438 9.0252,47.98476 C9.396108,47.99292 9.76056,47.9976 10.12794,47.9976 C10.566804,48 11.0016,48 11.441616,48 L132.161724,48 C132.593004,48 133.031244,48 133.462524,47.9976 C133.828164,47.9976 134.203164,47.99292 134.568804,47.98476 C135.373012,47.9747084 136.175304,47.9037858 136.968804,47.7726 C137.765345,47.6350156 138.537041,47.3799136 139.258644,47.01564 C139.976997,46.6509655 140.6322,46.1734189 141.199284,45.6012 C141.770625,45.0338662 142.249119,44.3801487 142.617204,43.66404 C142.979555,42.9445089 143.230074,42.1739334 143.360124,41.37888 C143.493942,40.5847651 143.568388,39.7817811 143.582844,38.9766 C143.587524,38.60388 143.587524,38.24292 143.587524,37.87032 C143.596884,37.43436 143.596884,37.0008 143.596884,36.55776 L143.596884,11.443356 C143.596884,11.003904 143.596884,10.567968 143.587524,10.133208 C143.587524,9.76524 143.587524,9.396096 143.582844,9.028128 C143.568391,8.22290693 143.493945,7.4198828 143.360124,6.625728 C143.229711,5.83113792 142.979207,5.06100393 142.617204,4.341744 C141.876473,2.89823529 140.701888,1.72323048 139.258644,0.981984 C138.537038,0.618680856 137.76526,0.365088492 136.968804,0.229584 C136.175442,0.0973233398 135.373065,0.0264093179 134.568804,0.017472 C134.203164,0.011616 133.828164,0.004584 133.462524,0.002244 C133.031244,-0.000156 132.593004,-0.000156 132.161724,-0.000156 L132.161724,3.25260652e-19 Z" fill="#A6A6A6"></path>
                    <path d="M10.133796,46.95 C9.76818,46.95 9.411396,46.94532 9.048648,46.93716 C8.29718613,46.9273689 7.54748061,46.86195 6.80568,46.74144 C6.11398836,46.6223138 5.44392509,46.4007174 4.817592,46.08396 C4.19700205,45.7698272 3.63097412,45.3579274 3.141192,44.86404 C2.64432039,44.3759703 2.23065208,43.8098928 1.91658,43.18824 C1.59904711,42.562547 1.37929546,41.8918795 1.26498,41.1996 C1.14152923,40.4557379 1.07473725,39.7035759 1.06518,38.9496 C1.057572,38.69652 1.047612,37.85388 1.047612,37.85388 L1.047612,10.133208 C1.047612,10.133208 1.05822,9.303516 1.06524,9.05976 C1.07439099,8.30697846 1.14079458,7.55598372 1.263876,6.813276 C1.37840247,6.1191001 1.59832425,5.44649864 1.916028,4.818756 C2.22894579,4.19753262 2.6403175,3.63103235 3.134196,3.141216 C3.62751939,2.6467457 4.19535793,2.23272494 4.817004,1.914252 C5.4418976,1.59851232 6.11069453,1.37847905 6.800988,1.261524 C7.5452248,1.13980337 8.29753301,1.0739953 9.0516,1.064652 L10.134384,1.05 L133.456644,1.05 L134.552364,1.06524 C135.299572,1.07411904 136.045046,1.13934001 136.782444,1.260348 C137.479726,1.37877008 138.155492,1.60033864 138.787524,1.917768 C140.032906,2.55958326 141.04625,3.57499554 141.685524,4.821684 C141.998157,5.44509308 142.214686,6.11220811 142.327764,6.800388 C142.452311,7.54918966 142.522016,8.306086 142.536324,9.06504 C142.539804,9.40488 142.539804,9.76992 142.539804,10.133208 C142.549284,10.583208 142.549284,11.011524 142.549284,11.443356 L142.549284,36.55776 C142.549284,36.99372 142.549284,37.41912 142.539804,37.848 C142.539804,38.23824 142.539804,38.59572 142.535124,38.96364 C142.521126,39.7090508 142.452583,40.4524371 142.330044,41.18784 C142.218072,41.8851134 141.999516,42.5610158 141.682044,43.19184 C141.365752,43.8067454 140.954459,44.3679194 140.463324,44.85468 C139.973101,45.3512216 139.406074,45.7655312 138.784044,46.08168 C138.153763,46.4008724 137.478991,46.6232883 136.782444,46.74144 C136.0407,46.8625932 135.290922,46.9280162 134.539404,46.93716 C134.187924,46.94532 133.819884,46.95 133.462524,46.95 L132.161724,46.9524 L10.133796,46.95 Z" fill="#000000"></path>
                </g>
                <g id="_Group_" transform="translate(11.800000, 9.600000)" fill="#FFFFFF">
                    <g id="_Group_2">
                        <g id="_Group_3">
                            <path d="M17.922656,14.760816 C17.9488844,12.7250509 19.0161475,10.8446233 20.750528,9.778344 C19.6514151,8.20861532 17.8764705,7.24905402 15.961136,7.189128 C13.946048,6.977616 11.992508,8.394924 10.965656,8.394924 C9.918932,8.394924 8.337932,7.210128 6.635456,7.245156 C4.39544151,7.3175261 2.35776461,8.56023058 1.267952,10.5186 C-1.052848,14.536704 0.67826,20.441964 2.901392,23.689896 C4.013672,25.280316 5.313608,27.056856 7.014548,26.993856 C8.67902,26.92482 9.300668,25.93248 11.309828,25.93248 C13.30034,25.93248 13.883576,26.993856 15.619028,26.9538 C17.405084,26.924808 18.530384,25.356312 19.60364,23.750832 C20.4028114,22.6175996 21.0177724,21.3651311 21.425744,20.03982 C19.3044519,19.1426175 17.9251319,17.0640412 17.922656,14.760816 Z" id="_Path_"></path>
                            <path d="M14.6447,5.053068 C15.6185319,3.88401829 16.0983019,2.38140294 15.982124,0.864324 C14.4943254,1.02058858 13.1200162,1.73165961 12.133028,2.855856 C11.1584225,3.96502683 10.6646896,5.41611921 10.760576,6.889524 C12.2683242,6.90504812 13.6998993,6.22818386 14.6447,5.053068 Z" id="_Path_2"></path>
                        </g>
                    </g>
                    <g id="Group" transform="translate(29.000000, 11.800000)">
                        <path d="M9.962724,11.16758 L4.282644,11.16758 L2.91858,15.19532 L0.512724,15.19532 L5.892804,0.29372 L8.392404,0.29372 L13.772484,15.19532 L11.3256,15.19532 L9.962724,11.16758 Z M4.87092,9.308984 L9.37332,9.308984 L7.153788,2.77226 L7.091676,2.77226 L4.87092,9.308984 Z" id="Shape" fill-rule="nonzero"></path>
                        <path d="M25.391628,9.763676 C25.391628,13.139852 23.584596,15.308984 20.857644,15.308984 C19.4481063,15.3827175 18.1203989,14.6444368 17.439288,13.408184 L17.387688,13.408184 L17.387688,18.78944 L15.157608,18.78944 L15.157608,4.330856 L17.31624,4.330856 L17.31624,6.137888 L17.357256,6.137888 C18.068626,4.9093855 19.3977651,4.1714226 20.816628,4.21718 C23.574,4.217192 25.391628,6.396872 25.391628,9.763676 Z M23.099436,9.763676 C23.099436,7.564076 21.962712,6.117968 20.22834,6.117968 C18.524436,6.117968 17.37834,7.594532 17.37834,9.763676 C17.37834,11.95274 18.524436,13.418756 20.22834,13.418756 C21.962724,13.418756 23.099436,11.983208 23.099436,9.763676 Z" id="Shape" fill-rule="nonzero"></path>
                        <path d="M37.349436,9.763676 C37.349436,13.139852 35.542404,15.308984 32.815452,15.308984 C31.4059143,15.3827175 30.0782069,14.6444368 29.397096,13.408184 L29.345496,13.408184 L29.345496,18.78944 L27.115416,18.78944 L27.115416,4.330856 L29.274,4.330856 L29.274,6.137888 L29.315016,6.137888 C30.0263911,4.90938624 31.3555354,4.17142769 32.7744,4.217192 C35.531856,4.217192 37.349436,6.396872 37.349436,9.763676 Z M35.057244,9.763676 C35.057244,7.564076 33.92052,6.117968 32.186148,6.117968 C30.482244,6.117968 29.336148,7.594532 29.336148,9.763676 C29.336148,11.95274 30.482244,13.418756 32.186148,13.418756 C33.920532,13.418756 35.057256,11.983208 35.057256,9.763676 L35.057244,9.763676 Z" id="Shape" fill-rule="nonzero"></path>
                        <path d="M45.252564,11.043356 C45.417804,12.521096 46.853364,13.491356 48.815064,13.491356 C50.694756,13.491356 52.047096,12.521048 52.047096,11.188616 C52.047096,10.031972 51.231468,9.339416 49.300224,8.864792 L47.36898,8.399552 C44.632656,7.738616 43.362336,6.458924 43.362336,4.38236 C43.362336,1.811264 45.602964,0.045248 48.784596,0.045248 C51.933396,0.045248 54.092016,1.811264 54.164676,4.38236 L51.913476,4.38236 C51.778716,2.895248 50.549412,1.9976 48.752928,1.9976 C46.956444,1.9976 45.727152,2.905808 45.727152,4.22768 C45.727152,5.281196 46.512312,5.901116 48.433008,6.37568 L50.0748,6.778808 C53.13222,7.501856 54.40254,8.730008 54.40254,10.909664 C54.40254,13.697552 52.181832,15.443648 48.6498,15.443648 C45.345108,15.443648 43.113864,13.738568 42.96972,11.043248 L45.252564,11.043356 Z" id="Path"></path>
                        <path d="M59.215452,1.75976 L59.215452,4.330856 L61.281468,4.330856 L61.281468,6.096872 L59.215452,6.096872 L59.215452,12.086324 C59.215452,13.016792 59.629128,13.450388 60.537324,13.450388 C60.7825937,13.4461111 61.0274666,13.4288872 61.27092,13.398788 L61.27092,15.154256 C60.862594,15.2305515 60.447565,15.2651054 60.032244,15.257384 C57.832644,15.257384 56.974824,14.431208 56.974824,12.324176 L56.974824,6.096872 L55.395144,6.096872 L55.395144,4.330856 L56.9748,4.330856 L56.9748,1.75976 L59.215452,1.75976 Z" id="Path"></path>
                        <path d="M62.478,9.763676 C62.478,6.34532 64.491276,4.197272 67.63074,4.197272 C70.78074,4.197272 72.784644,6.345272 72.784644,9.763676 C72.784644,13.191416 70.791288,15.33008 67.63074,15.33008 C64.471308,15.33008 62.478,13.191404 62.478,9.763676 Z M70.512372,9.763676 C70.512372,7.418756 69.43776,6.034772 67.630728,6.034772 C65.823696,6.034772 64.75026,7.429304 64.75026,9.763676 C64.75026,12.117968 65.823696,13.491416 67.630728,13.491416 C69.43776,13.491416 70.512324,12.117968 70.512324,9.763676 L70.512372,9.763676 Z" id="Shape" fill-rule="nonzero"></path>
                        <path d="M74.623272,4.330856 L76.750224,4.330856 L76.750224,6.180056 L76.801824,6.180056 C77.0984353,4.98964209 78.1891831,4.17035787 79.4151,4.217168 C79.6720968,4.21627068 79.9283846,4.2441809 80.179164,4.300376 L80.179164,6.386312 C79.8547212,6.28717198 79.5162715,6.24165355 79.177164,6.251552 C78.5215419,6.22495453 77.8870451,6.48624168 77.4402737,6.96680717 C76.9935024,7.44737266 76.7790919,8.09920489 76.85334,8.751152 L76.85334,15.195296 L74.62326,15.195296 L74.623272,4.330856 Z" id="Path"></path>
                        <path d="M90.46116,12.004292 C90.16116,13.976552 88.240452,15.330068 85.783032,15.330068 C82.622484,15.330068 80.660772,13.212488 80.660772,9.815228 C80.660772,6.40742 82.633032,4.19726 85.689288,4.19726 C88.695144,4.19726 90.585384,6.2621 90.585384,9.556244 L90.585384,10.320308 L82.911948,10.320308 L82.911948,10.455068 C82.8403049,11.2639059 83.1195979,12.0645433 83.6787839,12.6533239 C84.2379699,13.2421045 85.023153,13.5622799 85.834608,13.532408 C86.9168187,13.6338075 87.9371317,13.0123732 88.343592,12.00428 L90.46116,12.004292 Z M82.9224749,8.761724 L88.354128,8.761712 C88.3945985,8.03491699 88.1300358,7.3241877 87.6241801,6.80075786 C87.1183243,6.27732801 86.417041,5.98865649 85.689288,6.004292 C84.9557781,5.99991467 84.2509089,6.28872155 83.7313506,6.80651989 C83.2117924,7.32431823 82.9205955,8.0282035 82.9224749,8.761724 Z" id="Shape" fill-rule="nonzero"></path>
                    </g>
                </g>
            </g>
            <g id="_Group_4" transform="translate(42.000000, 10.000000)" fill="#FFFFFF">
                <g id="Group">
                    <path d="M3.391428,0.835428571 C4.33816387,0.770724779 5.26547072,1.11376849 5.91811355,1.77013922 C6.57075638,2.42650995 6.87994305,3.32702262 6.760572,4.22381714 C6.760572,6.40238857 5.524248,7.65467429 3.391428,7.65467429 L0.805104,7.65467429 L0.805104,0.835428571 L3.391428,0.835428571 Z M1.917204,6.69028571 L3.267204,6.69028571 C3.94379033,6.72880229 4.60258383,6.47492458 5.06066222,5.9991449 C5.5187406,5.52336523 5.72733553,4.87633648 5.628528,4.23771429 C5.72014682,3.60174232 5.5085479,2.96005282 5.05160529,2.48815312 C4.59466268,2.01625342 3.9401948,1.7635272 3.267204,1.79909714 L1.917204,1.79909714 L1.917204,6.69028571 Z" id="Shape" fill-rule="nonzero"></path>
                    <path d="M8.016816,5.07924571 C7.92416055,4.15682863 8.3885804,3.26412793 9.21529911,2.77553985 C10.0420178,2.28695177 11.0880982,2.28695177 11.9148169,2.77553985 C12.7415356,3.26412793 13.2059554,4.15682863 13.1133,5.07924571 C13.2077183,6.00265401 12.7437224,6.89708615 11.9162707,7.38672606 C11.0888189,7.87636596 10.0412971,7.87636596 9.21384535,7.38672606 C8.38639361,6.89708615 7.92239767,6.00265401 8.016816,5.07924571 Z M12.016416,5.07924571 C12.016416,3.96373714 11.49024,3.31139429 10.566816,3.31139429 C9.639864,3.31139429 9.118416,3.96373714 9.118416,5.07925714 C9.118416,6.20370286 9.6399,6.85101714 10.566816,6.85101714 C11.490264,6.85100571 12.016428,6.19922286 12.016428,5.07924571 L12.016416,5.07924571 Z" id="Shape" fill-rule="nonzero"></path>
                    <polygon id="Path" points="19.887912 7.65457143 18.781668 7.65457143 17.664876 3.86438857 17.580504 3.86438857 16.468392 7.65457143 15.372684 7.65457143 13.883232 2.50836571 14.964876 2.50836571 15.932844 6.43522286 16.012536 6.43522286 17.123472 2.50836571 18.14652 2.50836571 19.257456 6.43522286 19.341828 6.43522286 20.305104 2.50836571 21.371508 2.50836571"></polygon>
                    <path d="M22.624248,2.50836571 L23.6508,2.50836571 L23.6508,3.32588571 L23.730492,3.32588571 C24.0076138,2.72397479 24.6551674,2.35577997 25.342992,2.40902857 C25.8755722,2.37089345 26.397463,2.56547417 26.7613089,2.93783094 C27.1251548,3.3101877 27.2914717,3.81991287 27.2133,4.32308571 L27.2133,7.65451429 L26.146896,7.65451429 L26.146896,4.57812571 C26.146896,3.75112 25.769556,3.33984 24.98088,3.33984 C24.619639,3.32381614 24.2690642,3.45883722 24.0210655,3.70950489 C23.7730668,3.96017257 23.652378,4.30148687 23.69064,4.64396571 L23.69064,7.65457143 L22.624236,7.65457143 L22.624248,2.50836571 Z" id="Path"></path>
                    <polygon id="Path" points="28.912524 0.499428571 29.978928 0.499428571 29.978928 7.65456 28.912524 7.65456"></polygon>
                    <path d="M31.461348,5.07924571 C31.3687637,4.15676828 31.8332568,3.26404499 32.6600369,2.77544937 C33.4868169,2.28685376 34.5329511,2.28685376 35.3597311,2.77544937 C36.1865112,3.26404499 36.6510043,4.15676828 36.55842,5.07924571 C36.6527184,6.00268707 36.1886375,6.89709393 35.3611447,7.38671227 C34.5336518,7.87633062 33.4861162,7.87633062 32.6586233,7.38671227 C31.8311305,6.89709393 31.3670496,6.00268707 31.461348,5.07924571 Z M35.460948,5.07924571 C35.460948,3.96373714 34.934772,3.31139429 34.011348,3.31139429 C33.084396,3.31139429 32.562948,3.96373714 32.562948,5.07925714 C32.562948,6.20370286 33.084432,6.85101714 34.011348,6.85101714 C34.934784,6.85100571 35.46096,6.19922286 35.46096,5.07924571 L35.460948,5.07924571 Z" id="Shape" fill-rule="nonzero"></path>
                    <path d="M37.68108,6.19922286 C37.68108,5.27288 38.405304,4.73884571 39.69084,4.66294857 L41.154516,4.58259429 L41.154516,4.1384 C41.154516,3.59486857 40.777176,3.28795429 40.048272,3.28795429 C39.452964,3.28795429 39.040464,3.49610286 38.922096,3.85994286 L37.889676,3.85994286 C37.99866,2.97601143 38.871708,2.40905143 40.097484,2.40905143 C41.452176,2.40905143 42.21624,3.05133714 42.21624,4.1384 L42.21624,7.65458286 L41.189676,7.65458286 L41.189676,6.93137143 L41.105304,6.93137143 C40.7566423,7.45951581 40.1366084,7.76818655 39.482256,7.73937143 C39.0235393,7.7848135 38.5660454,7.64332647 38.222875,7.34988851 C37.8797046,7.05645055 37.6828873,6.6384495 37.68108,6.19922286 Z M41.154516,5.75948571 L41.154516,5.32924571 L39.834984,5.4096 C39.09084,5.45702857 38.75334,5.69810286 38.75334,6.15178286 C38.75334,6.61494857 39.175212,6.88448 39.75534,6.88448 C40.0987633,6.91758841 40.4415917,6.81654292 40.7053445,6.60447496 C40.9690973,6.392407 41.1311899,6.08747549 41.154516,5.75948571 Z" id="Shape" fill-rule="nonzero"></path>
                    <path d="M43.617792,5.07924571 C43.617792,3.45313143 44.495532,2.42299429 45.86076,2.42299429 C46.5501321,2.39274301 47.195793,2.74454042 47.517792,3.32585143 L47.597484,3.32585143 L47.597484,0.499428571 L48.663888,0.499428571 L48.663888,7.65456 L47.642016,7.65456 L47.642016,6.84149714 L47.557644,6.84149714 C47.211305,7.41798512 46.5576894,7.76383597 45.860772,7.73937143 C44.48616,7.73942857 43.617792,6.70926857 43.617792,5.07924571 Z M44.719392,5.07924571 C44.719392,6.17076571 45.259632,6.82757714 46.163148,6.82757714 C47.061948,6.82757714 47.61744,6.16129143 47.61744,5.08371429 C47.61744,4.01116571 47.056116,3.33538286 46.163148,3.33538286 C45.265452,3.33538286 44.719356,3.99665143 44.719356,5.07924571 L44.719392,5.07924571 Z" id="Shape" fill-rule="nonzero"></path>
                    <path d="M53.076,5.07924571 C52.9833446,4.15682863 53.4477644,3.26412793 54.2744831,2.77553985 C55.1012018,2.28695177 56.1472822,2.28695177 56.9740009,2.77553985 C57.8007196,3.26412793 58.2651394,4.15682863 58.172484,5.07924571 C58.2669023,6.00265401 57.8029064,6.89708615 56.9754547,7.38672606 C56.1480029,7.87636596 55.1004811,7.87636596 54.2730293,7.38672606 C53.4455776,6.89708615 52.9815817,6.00265401 53.076,5.07924571 Z M57.0756,5.07924571 C57.0756,3.96373714 56.549424,3.31139429 55.626,3.31139429 C54.699048,3.31139429 54.1776,3.96373714 54.1776,5.07925714 C54.1776,6.20370286 54.699084,6.85101714 55.626,6.85101714 C56.549436,6.85100571 57.0756,6.19922286 57.0756,5.07924571 Z" id="Shape" fill-rule="nonzero"></path>
                    <path d="M59.60334,2.50836571 L60.629904,2.50836571 L60.629904,3.32588571 L60.709596,3.32588571 C60.9867178,2.72397479 61.6342714,2.35577997 62.322096,2.40902857 C62.8546762,2.37089345 63.376567,2.56547417 63.7404129,2.93783094 C64.1042588,3.3101877 64.2705757,3.81991287 64.192404,4.32308571 L64.192404,7.65451429 L63.126,7.65451429 L63.126,4.57812571 C63.126,3.75112 62.74866,3.33984 61.959984,3.33984 C61.598743,3.32381614 61.2481682,3.45883722 61.0001695,3.70950489 C60.7521708,3.96017257 60.631482,4.30148687 60.669744,4.64396571 L60.669744,7.65457143 L59.60334,7.65457143 L59.60334,2.50836571 Z" id="Path"></path>
                    <path d="M70.218192,1.22712 L70.218192,2.53180571 L71.3889,2.53180571 L71.3889,3.38728 L70.218192,3.38728 L70.218192,6.03348571 C70.218192,6.57254857 70.4514,6.80859429 70.982256,6.80859429 C71.1181627,6.80818004 71.2539329,6.8003539 71.3889,6.78515429 L71.3889,7.63113143 C71.1973914,7.66376082 71.0033588,7.68112005 70.80882,7.68302857 C69.622884,7.68302857 69.150612,7.28570286 69.150612,6.29352 L69.150612,3.38723429 L68.292804,3.38723429 L68.292804,2.53176 L69.150612,2.53176 L69.150612,1.22712 L70.218192,1.22712 Z" id="Path"></path>
                    <path d="M72.845532,0.499428571 L73.902564,0.499428571 L73.902564,3.33537143 L73.986936,3.33537143 C74.2773693,2.72819264 74.9362562,2.35952862 75.634536,2.41349714 C76.1640919,2.38605404 76.678918,2.58491853 77.0387871,2.9559244 C77.3986563,3.32693028 77.5660859,3.83143501 77.495472,4.33202286 L77.495472,7.65457143 L76.428,7.65457143 L76.428,4.58257143 C76.428,3.76058286 76.026,3.34428571 75.272532,3.34428571 C74.9015268,3.31530705 74.5360069,3.4437611 74.2736908,3.69530686 C74.0113747,3.94685262 73.8790103,4.29584036 73.911984,4.64897143 L73.911984,7.65454857 L72.84558,7.65454857 L72.845532,0.499428571 Z" id="Path"></path>
                    <path d="M83.7135,6.26506286 C83.4144684,7.23578227 82.4281187,7.8629749 81.372096,7.75389714 C80.6515727,7.77201165 79.9591097,7.48757794 79.4784339,6.97606304 C78.9977581,6.46454814 78.7774637,5.77766393 78.876,5.09765714 C78.7800809,4.41576054 78.9995499,3.7277757 79.477549,3.21193938 C79.9555481,2.69610306 80.6450424,2.40317343 81.367404,2.40904 C82.87092,2.40904 83.777952,3.38732571 83.777952,5.00332571 L83.777952,5.35771429 L79.962324,5.35771429 L79.962324,5.41462857 C79.9285584,5.79650302 80.0655009,6.174226 80.3394729,6.45490366 C80.613445,6.73558131 80.9990255,6.8931702 81.401388,6.88891429 C81.9231142,6.94856535 82.430979,6.70209491 82.686936,6.26502857 L83.7135,6.26506286 Z M79.9623,4.60658286 L82.691592,4.60658286 C82.7187755,4.25732621 82.5898301,3.91337722 82.3365323,3.65949611 C82.0832345,3.40561499 81.729141,3.26541283 81.361512,3.27344 C80.9889024,3.26898161 80.6301936,3.40802427 80.3667556,3.65902729 C80.1033177,3.91003032 79.9574798,4.25171855 79.962324,4.60658286 L79.9623,4.60658286 Z" id="Shape" fill-rule="nonzero"></path>
                </g>
            </g>
        </g>
    </g>
</svg>